<svg width="14" height="14" viewBox="0 0 14 14" fill="none" xmlns="http://www.w3.org/2000/svg">
<path fill-rule="evenodd" clip-rule="evenodd" d="M3.70001 13.675L3.72501 13.675C4.01861 13.675 4.27853 13.675 4.49388 13.6574C4.72322 13.6387 4.96086 13.5967 5.1922 13.4788C5.53089 13.3063 5.80625 13.0309 5.97883 12.6922C6.0967 12.4609 6.13871 12.2232 6.15745 11.9939C6.17504 11.7785 6.17503 11.5187 6.17502 11.225L6.17501 11.2V2.80002L6.17502 2.77501C6.17503 2.48139 6.17504 2.22152 6.15745 2.00615C6.13871 1.77681 6.0967 1.53917 5.97883 1.30783C5.80625 0.96914 5.53089 0.693775 5.1922 0.521203C4.96086 0.403328 4.72322 0.361321 4.49388 0.342584C4.27853 0.324988 4.01868 0.325 3.72507 0.325014L3.70001 0.325014H2.80001L2.77501 0.325014C2.48141 0.325 2.2215 0.324988 2.00615 0.342584C1.77681 0.361321 1.53917 0.403328 1.30783 0.521203C0.96914 0.693774 0.693775 0.969139 0.521203 1.30783C0.403329 1.53917 0.361321 1.77681 0.342583 2.00615C0.324988 2.2215 0.325 2.48135 0.325013 2.77496L0.325015 2.80001L0.325015 11.2L0.325013 11.225C0.325 11.5186 0.324988 11.7785 0.342583 11.9939C0.361321 12.2232 0.403328 12.4609 0.521203 12.6922C0.693774 13.0309 0.96914 13.3063 1.30783 13.4788C1.53917 13.5967 1.77681 13.6387 2.00615 13.6574C2.2215 13.675 2.48134 13.675 2.77494 13.675L2.80001 13.675H3.70001ZM4.57931 12.276C4.57 12.2807 4.5298 12.3 4.38395 12.3119C4.23021 12.3245 4.02618 12.325 3.70001 12.325H2.80001C2.47385 12.325 2.26982 12.3245 2.11608 12.3119C1.97023 12.3 1.93003 12.2807 1.92072 12.276C1.83605 12.2328 1.7672 12.164 1.72406 12.0793C1.71932 12.07 1.70002 12.0298 1.6881 11.8839C1.67554 11.7302 1.67501 11.5262 1.67501 11.2L1.67501 2.80001C1.67501 2.47385 1.67554 2.26982 1.6881 2.11608C1.70002 1.97023 1.71932 1.93003 1.72406 1.92072C1.7672 1.83605 1.83605 1.7672 1.92072 1.72406C1.93003 1.71932 1.97023 1.70002 2.11608 1.6881C2.26982 1.67554 2.47385 1.67501 2.80001 1.67501H3.70001C4.02618 1.67501 4.23021 1.67554 4.38395 1.6881C4.5298 1.70002 4.57 1.71932 4.57931 1.72406C4.66398 1.7672 4.73282 1.83605 4.77597 1.92072C4.78071 1.93003 4.80001 1.97023 4.81193 2.11608C4.82449 2.26982 4.82501 2.47385 4.82501 2.80001L4.82501 11.2C4.82501 11.5262 4.82449 11.7302 4.81193 11.8839C4.80001 12.0298 4.78071 12.07 4.77597 12.0793C4.73282 12.164 4.66398 12.2328 4.57931 12.276ZM11.225 6.17502L11.2 6.17501H10.3L10.275 6.17502C9.98139 6.17503 9.72151 6.17504 9.50615 6.15745C9.27681 6.13871 9.03917 6.0967 8.80783 5.97883C8.46914 5.80625 8.19377 5.53089 8.0212 5.1922C7.90333 4.96086 7.86132 4.72322 7.84258 4.49388C7.82499 4.27851 7.825 4.01865 7.82501 3.72502L7.82501 3.70001V2.80001L7.82501 2.77501C7.825 2.48138 7.82499 2.22152 7.84258 2.00615C7.86132 1.77681 7.90333 1.53917 8.0212 1.30783C8.19377 0.96914 8.46914 0.693774 8.80783 0.521203C9.03917 0.403328 9.27681 0.361321 9.50615 0.342583C9.7215 0.324988 9.98136 0.325 10.275 0.325013L10.3 0.325014L11.2 0.325015L11.225 0.325013C11.5186 0.325 11.7785 0.324988 11.9939 0.342583C12.2232 0.361321 12.4609 0.403329 12.6922 0.521203C13.0309 0.693775 13.3063 0.96914 13.4788 1.30783C13.5967 1.53917 13.6387 1.77681 13.6574 2.00615C13.675 2.22152 13.675 2.48138 13.675 2.77501L13.675 2.80001V3.70002L13.675 3.72501C13.675 4.01864 13.675 4.27851 13.6574 4.49388C13.6387 4.72322 13.5967 4.96086 13.4788 5.1922C13.3063 5.53089 13.0309 5.80625 12.6922 5.97883C12.4609 6.0967 12.2232 6.13871 11.9939 6.15745C11.7785 6.17504 11.5186 6.17503 11.225 6.17502ZM11.8839 4.81193C12.0298 4.80001 12.07 4.78071 12.0793 4.77597C12.164 4.73282 12.2328 4.66398 12.276 4.57931C12.2807 4.57 12.3 4.5298 12.3119 4.38395C12.3245 4.23021 12.325 4.02618 12.325 3.70001V2.80001C12.325 2.47385 12.3245 2.26982 12.3119 2.11608C12.3 1.97023 12.2807 1.93003 12.276 1.92072C12.2328 1.83605 12.164 1.7672 12.0793 1.72406C12.07 1.71932 12.0298 1.70002 11.8839 1.6881C11.7302 1.67554 11.5262 1.67501 11.2 1.67501L10.3 1.67501C9.97385 1.67501 9.76982 1.67554 9.61608 1.6881C9.47023 1.70002 9.43003 1.71932 9.42072 1.72406C9.33605 1.7672 9.2672 1.83605 9.22406 1.92072C9.21932 1.93003 9.20002 1.97023 9.1881 2.11608C9.17554 2.26982 9.17501 2.47385 9.17501 2.80001V3.70001C9.17501 4.02618 9.17554 4.23021 9.1881 4.38395C9.20002 4.5298 9.21932 4.57 9.22406 4.57931C9.2672 4.66398 9.33605 4.73282 9.42072 4.77597C9.43003 4.78071 9.47023 4.80001 9.61608 4.81193C9.76982 4.82449 9.97385 4.82501 10.3 4.82501L11.2 4.82501C11.5262 4.82501 11.7302 4.82449 11.8839 4.81193ZM11.2 13.675L11.225 13.675C11.5186 13.675 11.7785 13.675 11.9939 13.6574C12.2232 13.6387 12.4609 13.5967 12.6922 13.4788C13.0309 13.3063 13.3063 13.0309 13.4788 12.6922C13.5967 12.4609 13.6387 12.2232 13.6574 11.9939C13.675 11.7785 13.675 11.5186 13.675 11.225L13.675 11.2V10.3L13.675 10.275C13.675 9.98138 13.675 9.72152 13.6574 9.50615C13.6387 9.27681 13.5967 9.03917 13.4788 8.80783C13.3063 8.46914 13.0309 8.19377 12.6922 8.0212C12.4609 7.90333 12.2232 7.86132 11.9939 7.84258C11.7785 7.82499 11.5187 7.825 11.2251 7.82501L11.2 7.82501H10.3L10.275 7.82501C9.9814 7.825 9.72151 7.82499 9.50615 7.84258C9.27681 7.86132 9.03917 7.90333 8.80783 8.0212C8.46914 8.19377 8.19377 8.46914 8.0212 8.80783C7.90333 9.03917 7.86132 9.27681 7.84258 9.50615C7.82499 9.72151 7.825 9.98138 7.82501 10.275L7.82501 10.3V11.2L7.82501 11.225C7.825 11.5186 7.82499 11.7785 7.84258 11.9939C7.86132 12.2232 7.90333 12.4609 8.0212 12.6922C8.19377 13.0309 8.46914 13.3063 8.80783 13.4788C9.03917 13.5967 9.27681 13.6387 9.50615 13.6574C9.7215 13.675 9.98134 13.675 10.2749 13.675L10.3 13.675H11.2ZM12.0793 12.276C12.07 12.2807 12.0298 12.3 11.8839 12.3119C11.7302 12.3245 11.5262 12.325 11.2 12.325H10.3C9.97385 12.325 9.76982 12.3245 9.61608 12.3119C9.47023 12.3 9.43003 12.2807 9.42072 12.276C9.33605 12.2328 9.2672 12.164 9.22406 12.0793C9.21932 12.07 9.20002 12.0298 9.1881 11.8839C9.17554 11.7302 9.17501 11.5262 9.17501 11.2V10.3C9.17501 9.97385 9.17554 9.76982 9.1881 9.61608C9.20002 9.47023 9.21932 9.43003 9.22406 9.42072C9.2672 9.33605 9.33605 9.2672 9.42072 9.22406C9.43003 9.21932 9.47023 9.20002 9.61608 9.1881C9.76982 9.17554 9.97385 9.17501 10.3 9.17501H11.2C11.5262 9.17501 11.7302 9.17554 11.8839 9.1881C12.0298 9.20002 12.07 9.21932 12.0793 9.22406C12.164 9.2672 12.2328 9.33605 12.276 9.42072C12.2807 9.43003 12.3 9.47023 12.3119 9.61608C12.3245 9.76982 12.325 9.97385 12.325 10.3V11.2C12.325 11.5262 12.3245 11.7302 12.3119 11.8839C12.3 12.0298 12.2807 12.07 12.276 12.0793C12.2328 12.164 12.164 12.2328 12.0793 12.276Z" fill="white"/>
</svg>
