<svg width="16" height="16" viewBox="0 0 16 16" fill="none" xmlns="http://www.w3.org/2000/svg">
<path d="M9.97573 6.17575C10.21 5.94143 10.5899 5.94143 10.8243 6.17575C11.0586 6.41006 11.0586 6.78996 10.8243 7.02427L7.75759 10.0909C7.52327 10.3253 7.14337 10.3253 6.90906 10.0909L5.17573 8.35761C4.94141 8.12329 4.94141 7.74339 5.17573 7.50908C5.41004 7.27477 5.78994 7.27477 6.02425 7.50908L7.33332 8.81815L9.97573 6.17575Z" fill="#00AF12"/>
<path fill-rule="evenodd" clip-rule="evenodd" d="M7.99999 1.39999C11.6447 1.39999 14.6 4.35525 14.6 7.99999C14.6 11.6447 11.6447 14.6 7.99999 14.6C4.35524 14.6 1.39999 11.6447 1.39999 7.99999C1.39999 4.35525 4.35525 1.39999 7.99999 1.39999ZM7.99999 2.59999C5.01732 2.59999 2.59999 5.01732 2.59999 7.99999C2.59999 10.9827 5.01732 13.4 7.99999 13.4C10.9827 13.4 13.4 10.9827 13.4 7.99999C13.4 5.01732 10.9827 2.59999 7.99999 2.59999Z" fill="#00AF12"/>
</svg>
