<svg width="40" height="40" viewBox="0 0 40 40" fill="none" xmlns="http://www.w3.org/2000/svg">
<g clip-path="url(#clip0_0_149)">
<path d="M36.375 2V32.625H3.625V8.625L12.25 0H34.4375C35.5 0 36.375 0.9375 36.375 2Z" fill="#EFF2F3"/>
<path d="M10.4375 8.625H3.6875L12.25 0L12.1875 6.75C12.25 7.8125 11.4375 8.625 10.4375 8.625Z" fill="#DADEDE"/>
<path d="M23.1875 17.5C21.375 15.75 20.0625 13.75 20.0625 13.75C20.5625 13 21.75 8.68751 19.9375 7.43751C18.125 6.18751 17.1875 8.50001 17.1875 8.50001C16.375 11.375 18.3125 14 18.3125 14L16.125 18.8125C15.875 18.8125 8.9375 21.5 11.3125 24.8125C13.75 28.125 17.125 20.125 17.125 20.125C18.4375 19.6875 22.4375 19.125 22.4375 19.125C24 21.25 25.875 21.9375 25.875 21.9375C28.75 22.6875 29.0625 20.3125 29.0625 20.3125C29.125 17.1875 23.1875 17.5 23.1875 17.5ZM12.5 23.6875C12.4375 23.6875 12.4375 23.625 12.4375 23.625C12.0625 22.75 14.9375 21.0625 14.9375 21.0625C14.9375 21.0625 13.375 24.0625 12.5 23.6875ZM19 8.56251C19.8125 9.31251 19.125 11.875 19.125 11.875C19.125 11.875 18.1875 9.31251 19 8.56251ZM18.25 18.25L19.375 15.5L21.125 17.625L18.25 18.25ZM27.5 20.25C27 21.0625 24.9375 19.3125 24.75 19.125C25.0625 19.125 27.75 19.3125 27.5 20.25ZM36.375 30.625V38C36.375 39.0625 35.5 40 34.375 40H5.5625C4.5 40 3.5625 39.125 3.5625 38V30.625H36.375Z" fill="#F2786B"/>
<path d="M17.4375 33.875C17.4375 34.375 17.25 34.75 16.9375 35.0625C16.625 35.3125 16.125 35.4375 15.5 35.4375H15V37.25H14.1875V32.4375H15.625C16.25 32.4375 16.6875 32.5625 17 32.8125C17.3125 33.0625 17.4375 33.375 17.4375 33.875ZM15.0625 34.8125H15.5C15.875 34.8125 16.1875 34.75 16.375 34.625C16.5625 34.5 16.6875 34.25 16.6875 33.9375C16.6875 33.6875 16.625 33.4375 16.4375 33.3125C16.25 33.1875 16 33.125 15.625 33.125H15.0625V34.8125ZM22.375 34.8125C22.375 35.625 22.125 36.25 21.6875 36.625C21.25 37.0625 20.625 37.25 19.75 37.25H18.375V32.4375H19.875C20.625 32.4375 21.25 32.625 21.6875 33.0625C22.125 33.4375 22.375 34.0625 22.375 34.8125ZM21.5 34.8125C21.5 33.625 20.9375 33.0625 19.875 33.0625H19.1875V36.5625H19.75C20.9375 36.625 21.5 36 21.5 34.8125ZM24.1875 37.25H23.375V32.4375H26.125V33.125H24.1875V34.625H26V35.3125H24.1875V37.25Z" fill="#EFF2F3"/>
</g>
<defs>
<clipPath id="clip0_0_149">
<rect width="40" height="40" fill="white"/>
</clipPath>
</defs>
</svg>
