<svg width="20" height="20" viewBox="0 0 20 20" fill="none" xmlns="http://www.w3.org/2000/svg">
<path fill-rule="evenodd" clip-rule="evenodd" d="M8.95832 2.91669C5.6216 2.91669 2.91666 5.62163 2.91666 8.95835C2.91666 12.2951 5.6216 15 8.95832 15C10.3564 15 11.6435 14.5252 12.6672 13.7279L16.2196 17.2804C16.5125 17.5732 16.9874 17.5732 17.2803 17.2804C17.5732 16.9875 17.5732 16.5126 17.2803 16.2197L13.7279 12.6673C14.5251 11.6435 15 10.3564 15 8.95835C15 5.62163 12.295 2.91669 8.95832 2.91669ZM8.95832 4.41669C6.45003 4.41669 4.41666 6.45006 4.41666 8.95835C4.41666 11.4666 6.45003 13.5 8.95832 13.5C11.4666 13.5 13.5 11.4666 13.5 8.95835C13.5 6.45006 11.4666 4.41669 8.95832 4.41669Z" fill="#777777"/>
</svg>
