<svg width="21" height="21" viewBox="0 0 21 21" fill="none" xmlns="http://www.w3.org/2000/svg">
<path d="M11.5417 2.86113C11.7294 3.48683 11.8607 4.11253 12.9008 4.71283C14.0655 5.02871 14.6351 4.71517 15.165 4.36194C15.7174 3.99366 15.8814 4.10011 16.102 4.31716L16.6381 4.85299C16.8836 5.09851 16.9818 5.19673 16.6381 5.83508C16.3283 6.41039 15.9786 6.94583 16.29 8.10639C16.8904 9.15252 17.5146 9.33349 18.1389 9.45835C18.79 9.58857 18.8306 9.77981 18.8332 10.0893L18.8334 10.8472C18.8334 11.1945 18.8334 11.3334 18.1389 11.5417C17.5132 11.7294 16.8875 11.8607 16.2872 12.9008C15.9713 14.0655 16.2849 14.6351 16.6381 15.165C17.0064 15.7174 16.8999 15.8814 16.6829 16.102L16.1471 16.6381C15.9015 16.8836 15.8033 16.9818 15.165 16.6381C14.5896 16.3283 14.0542 15.9786 12.8937 16.29C11.8475 16.8904 11.6666 17.5146 11.5417 18.1389C11.4115 18.79 11.2202 18.8306 10.9107 18.8332L10.2824 18.8334C10.2449 18.8334 10.2024 18.8334 10.1528 18.8334C9.80558 18.8334 9.66668 18.8334 9.45835 18.1389C9.27065 17.5132 9.13931 16.8875 8.09924 16.2872C6.9345 15.9713 6.36494 16.2849 5.83508 16.6381C5.28265 17.0064 5.11865 16.8999 4.898 16.6829L4.36194 16.1471C4.11642 15.9015 4.0182 15.8033 4.36194 15.165C4.67173 14.5896 5.0214 14.0542 4.71001 12.8937C4.10968 11.8475 3.48541 11.6666 2.86113 11.5417C2.21009 11.4115 2.1694 11.2202 2.16686 10.9107L2.16669 10.1528C2.16669 9.80558 2.16669 9.66668 2.86113 9.45835C3.48683 9.27065 4.11253 9.13931 4.71283 8.09924C5.02871 6.9345 4.71517 6.36494 4.36194 5.83508C3.99366 5.28265 4.10011 5.11865 4.31716 4.898L4.85299 4.36194C5.09851 4.11642 5.19673 4.0182 5.83508 4.36194C6.41039 4.67173 6.94583 5.0214 8.10639 4.71001C9.15252 4.10968 9.33349 3.48541 9.45835 2.86113C9.58857 2.21009 9.77981 2.1694 10.0893 2.16686L10.8472 2.16669C11.1945 2.16669 11.3334 2.16669 11.5417 2.86113ZM10.5 6.54169C8.31389 6.54169 6.54169 8.31389 6.54169 10.5C6.54169 12.6861 8.31389 14.4584 10.5 14.4584C12.6861 14.4584 14.4584 12.6861 14.4584 10.5C14.4584 8.31389 12.6861 6.54169 10.5 6.54169Z" fill="#2B378D"/>
</svg>
